<svg width="182" height="39" viewBox="0 0 182 39" fill="none" xmlns="http://www.w3.org/2000/svg">
<path d="M55.8052 14.7969C59.836 14.7969 61.7256 17.4244 61.7256 21.0555C61.7227 21.8961 61.6384 22.7346 61.4736 23.5599H52.6565C52.9085 25.9411 54.1991 26.9796 56.2464 26.9796C57.6706 26.975 59.0847 26.7483 60.4345 26.3082L61.3162 28.9036C59.489 29.7182 57.5033 30.1447 55.4921 30.1546C51.2721 30.1546 48.4385 27.5592 48.4385 22.9489C48.4369 18.3993 51.1762 14.7969 55.8052 14.7969ZM52.6877 21.1477H57.789C57.8147 20.8635 57.8252 20.5783 57.8206 20.2931C57.8206 18.7637 57.0966 17.8201 55.5536 17.8201C53.8217 17.8201 52.9396 19.0409 52.6877 21.1477Z" fill="#494949"/>
<path d="M72.1461 14.8267C73.0396 14.8027 73.929 14.9525 74.7618 15.2671C75.5947 15.5817 76.3542 16.0548 76.9955 16.6585L75.421 19.1629C74.436 18.5376 73.2918 18.1889 72.115 18.1554C71.4324 18.1119 70.7579 18.3188 70.2254 18.7351C69.376 19.437 68.9655 20.8116 68.9655 22.5207C68.9655 25.5137 70.1627 26.8875 72.4923 26.8875C73.6754 26.8572 74.8455 26.6405 75.9569 26.2459L76.8062 29.0558C75.2419 29.7775 73.5315 30.1526 71.7991 30.1539C67.3905 30.1539 64.7139 27.5283 64.7139 22.9481C64.7147 18.1241 67.5507 14.8267 72.1461 14.8267Z" fill="#494949"/>
<path d="M87.1018 14.7354C91.4788 14.7354 94.0293 18.0021 94.0293 22.216C94.0293 26.5208 91.3526 30.246 86.4716 30.246C82.1258 30.246 79.5122 27.1318 79.5122 22.8878C79.5122 18.6123 82.252 14.7354 87.1018 14.7354ZM86.7236 17.8798C86.3619 17.8598 86.0004 17.9211 85.6672 18.0588C85.3339 18.1966 85.038 18.4071 84.8025 18.6739C84.2043 19.4061 83.795 20.6889 83.795 22.3995C83.795 25.2082 84.8344 27.1016 86.8498 27.1016C87.2105 27.1146 87.5696 27.0501 87.9017 26.9129C88.2337 26.7757 88.5304 26.5691 88.7705 26.3079C89.4322 25.5443 89.7784 24.2921 89.7784 22.705C89.7784 19.8947 88.7705 17.8809 86.7236 17.8809V17.8798Z" fill="#494949"/>
<path d="M104.105 9.02637C110.119 9.02637 113.268 11.3162 113.268 15.6211C113.268 20.1703 109.962 23.2241 104.262 23.2241C103.664 23.2241 103.003 23.1939 102.373 23.1319V29.8188H98.1533V9.51462C100.121 9.203 102.111 9.03976 104.105 9.02637ZM107.033 19.3157C108.23 18.7353 108.891 17.6055 108.891 15.9568C108.891 13.4838 107.317 12.4461 104.514 12.4461C103.799 12.4446 103.084 12.485 102.373 12.5673V19.8651C102.972 19.8953 103.506 19.9255 103.948 19.9255C105.175 19.9255 106.309 19.7428 107.033 19.3157Z" fill="#494949"/>
<path d="M122.721 14.7354C127.098 14.7354 129.648 18.0021 129.648 22.216C129.648 26.5208 126.972 30.246 122.091 30.246C117.745 30.246 115.131 27.1318 115.131 22.8878C115.131 18.6123 117.871 14.7354 122.721 14.7354ZM122.343 17.8798C121.981 17.8598 121.62 17.9211 121.286 18.0589C120.953 18.1966 120.657 18.4071 120.422 18.6739C119.823 19.4061 119.414 20.6889 119.414 22.3995C119.414 25.2082 120.454 27.1016 122.469 27.1016C122.83 27.1145 123.189 27.0501 123.521 26.9129C123.853 26.7757 124.149 26.5691 124.39 26.3079C125.051 25.5443 125.398 24.2921 125.398 22.705C125.398 19.8947 124.39 17.8809 122.343 17.8809V17.8798Z" fill="#494949"/>
<path d="M136.51 14.9185L137.329 17.546C138.305 15.8671 139.533 14.8283 141.233 14.8283C142.014 14.8215 142.779 15.0337 143.438 15.4393L142.779 19.1319C142.213 18.9956 141.63 18.9337 141.047 18.948C140.393 18.9256 139.743 19.0553 139.151 19.3263C138.56 19.5973 138.043 20.0017 137.646 20.5057V29.8182H133.457V21.4826C133.457 20.2304 133.394 18.8264 133.174 15.3452L136.51 14.9185Z" fill="#494949"/>
<path d="M152.341 10.7361V15.1633H156.813V18.2776H152.341V24.0785C152.341 26.2747 152.75 26.8268 154.167 26.8268C154.941 26.8063 155.71 26.7144 156.466 26.5523L157.159 29.3006C155.661 29.8588 154.072 30.1483 152.467 30.1552C149.727 30.1552 148.184 28.9344 148.184 25.179V18.2768H146.012V15.1626H147.996L148.908 10.7354L152.341 10.7361Z" fill="#494949"/>
<path d="M166.573 14.8262C170.32 14.8262 172.052 16.5365 172.052 20.3527V23.7422C172.052 24.9328 172.115 26.276 172.335 29.5741L169.028 30.0326L168.367 28.1086C166.919 29.3914 165.281 30.1538 163.455 30.1538C160.872 30.1538 159.298 28.7184 159.298 26.3681C159.293 25.6403 159.481 24.9235 159.845 24.287C160.21 23.6504 160.737 23.1158 161.376 22.7347C162.605 21.941 164.683 21.4523 167.895 21.177C167.863 18.7961 167.234 18.0934 165.628 18.0934C164.041 18.1503 162.503 18.637 161.188 19.4981L159.928 17.0859C161.811 15.6171 164.156 14.8194 166.573 14.8262ZM167.896 25.9403V23.6198C165.534 23.7724 164.431 24.0477 163.896 24.3834C163.66 24.5347 163.472 24.7452 163.35 24.9925C163.228 25.2397 163.177 25.5145 163.204 25.7873C163.204 26.734 163.644 27.2529 164.652 27.2529C165.596 27.2537 166.731 26.796 167.895 25.9403H167.896Z" fill="#494949"/>
<path d="M179.481 6.88867V25.5755C179.481 26.4614 179.733 26.8277 180.363 26.8277C180.696 26.8175 181.026 26.7557 181.339 26.6446L182 29.5466C180.949 29.954 179.826 30.1611 178.694 30.1565C176.553 30.1565 175.293 28.9662 175.293 26.676V6.95063L179.481 6.88867Z" fill="#494949"/>
<path d="M33.7015 13.2645L37.7731 11.9405C36.8278 9.63116 35.4216 7.52551 33.6351 5.74428C31.8487 3.96306 29.7172 2.5413 27.3629 1.56055L25.8862 5.48224C29.4142 7.02234 32.2075 9.80385 33.7015 13.2645Z" fill="#53C351"/>
<path d="M22.2163 33.616L22.6458 37.7813C27.7586 36.997 32.3439 34.2838 35.4011 30.2336L31.7913 27.9648C29.4478 30.9508 26.0282 32.9691 22.2163 33.616Z" fill="#53C351"/>
<path d="M19.9679 33.8366C18.0525 33.8886 16.1444 33.5859 14.346 32.9447C12.5417 32.311 10.8782 31.3501 9.4444 30.1133L6.36328 33.0247C8.25073 34.7077 10.4641 36.0104 12.875 36.8571C15.2811 37.7149 17.8391 38.1007 20.4002 37.9921L19.9784 33.8405L19.9679 33.8366Z" fill="#53C351"/>
<path d="M38.4919 14.0264L34.4203 15.3503C35.1838 18.2414 35.0267 21.2889 33.9697 24.0918C33.709 24.7926 33.3891 25.4714 33.0132 26.1213L36.6334 28.3959C37.1734 27.4768 37.6319 26.5151 38.0041 25.5209C39.4029 21.8332 39.5735 17.813 38.4919 14.0264Z" fill="#53C351"/>
<path d="M4.314 18.2405L0.0470148 17.7217C-0.130795 20.2004 0.196854 22.6888 1.01124 25.0447C1.82562 27.4006 3.11078 29.5778 4.79327 31.4519L7.87399 28.5408C5.39381 25.6636 4.12272 21.9859 4.314 18.2405Z" fill="#53C351"/>
<path d="M5.21833 13.9204C6.27101 11.1163 8.17454 8.6869 10.6784 6.9519L8.43292 3.39258C5.09767 5.61913 2.5627 8.79992 1.18188 12.4909C0.80622 13.4838 0.518158 14.5058 0.320801 15.5459L4.59992 16.0687C4.74467 15.3373 4.95151 14.6187 5.21833 13.9204Z" fill="#53C351"/>
<path d="M23.7633 4.73246L25.2395 0.810289C22.7854 0.0905596 20.2091 -0.153179 17.6579 0.0929979C15.1066 0.339175 12.6303 1.07044 10.3706 2.24502L12.6125 5.81419C16.0526 4.09239 20.0397 3.7056 23.7633 4.73246Z" fill="#53C351"/>
<path d="M31.1207 24.9154C31.2339 24.7103 31.3362 24.5016 31.4442 24.2828C31.5959 23.9749 31.7273 23.6596 31.8487 23.3416C31.9259 23.1357 31.9931 22.9259 32.0562 22.7267C32.1194 22.558 32.1721 22.3858 32.2139 22.211C32.3635 21.6511 32.4732 21.0819 32.5423 20.5074C32.5862 20.2267 32.6123 19.9437 32.6204 19.6599C32.6313 19.4074 32.6426 19.1544 32.639 18.9081C32.6333 18.7313 32.6345 18.5685 32.6143 18.3983C32.596 17.875 32.5346 17.354 32.4307 16.8402C32.3921 16.5739 32.3389 16.3097 32.2713 16.0488L28.1864 17.3795C28.2074 17.5151 28.2325 17.6406 28.2426 17.7716C28.2701 17.9047 28.2877 18.0396 28.2952 18.1752C28.3194 18.314 28.3309 18.4547 28.3295 18.5956C28.3506 18.9628 28.3446 19.3311 28.3117 19.6976C28.2964 19.867 28.2806 20.0364 28.2543 20.2023C28.2309 20.3939 28.1955 20.5839 28.1483 20.7713C28.1141 20.9598 28.0681 21.146 28.0104 21.329C27.9477 21.5286 27.8891 21.7176 27.8147 21.9133C27.7209 22.168 27.6111 22.4168 27.4858 22.6584L31.1166 24.933L31.1207 24.9154Z" fill="#494949"/>
<path d="M24.7958 30.598C25.3338 30.3696 25.8551 30.1058 26.3561 29.8085C26.5705 29.6861 26.7744 29.5598 26.9822 29.4237C27.4177 29.1333 27.8341 28.817 28.2292 28.4765C28.5479 28.2043 28.8456 27.9247 29.1408 27.6207C29.3988 27.3501 29.65 27.0657 29.8801 26.7739L26.2599 24.499C26.1422 24.6206 26.0346 24.7461 25.9169 24.8677C25.8397 24.9462 25.766 25.0124 25.6965 25.0697C25.5607 25.2064 25.416 25.3346 25.2633 25.4533C25.0874 25.6008 24.9155 25.7384 24.7327 25.8718C24.7222 25.8683 24.7222 25.8683 24.7181 25.8785C24.5252 26.0083 24.3355 26.1283 24.1357 26.244C23.3437 26.7144 22.4791 27.0587 21.5747 27.2638L21.9937 31.4264C22.3817 31.3537 22.7631 31.267 23.1379 31.1663C23.7008 31.0063 24.2542 30.8165 24.7958 30.598Z" fill="#494949"/>
<path d="M31.5441 13.9486C31.3823 13.6117 31.2206 13.2744 31.0406 12.954C30.8781 12.6547 30.6979 12.3649 30.5006 12.086C30.4781 12.0471 30.4517 12.0104 30.4218 11.9766C29.9954 11.3519 29.5109 10.7665 28.9742 10.2277C28.5669 9.81303 28.1288 9.42789 27.6634 9.07532C27.5125 8.95276 27.3546 8.83844 27.1906 8.73291C27.0332 8.6157 26.8693 8.50703 26.6996 8.40738C26.5236 8.2861 26.3406 8.17465 26.1516 8.07359C25.8148 7.88006 25.4665 7.70613 25.1085 7.55273L23.627 11.4855C23.8192 11.5764 24.0061 11.6776 24.1867 11.7887C24.2283 11.8095 24.2671 11.835 24.3024 11.8648C24.4888 11.9773 24.6603 12.0966 24.8322 12.2154C25.3962 12.6224 25.905 13.0969 26.3465 13.6274C26.4922 13.7882 26.6248 13.9599 26.7429 14.1408C27.0132 14.5037 27.2508 14.8884 27.4531 15.2908L31.5498 13.9635C31.5505 13.9622 31.551 13.9607 31.5511 13.9592C31.5512 13.9578 31.551 13.9562 31.5504 13.9548C31.5499 13.9534 31.5491 13.9521 31.548 13.9511C31.5469 13.95 31.5456 13.9492 31.5441 13.9486Z" fill="#494949"/>
<path d="M11.3099 21.7083C11.2338 21.4949 11.1683 21.2851 11.1076 21.065C11.1117 21.0545 11.1117 21.0545 11.1012 21.0509C11.0502 20.8344 11.0098 20.6218 10.9734 20.3991C10.9352 20.2129 10.9097 20.0245 10.8969 19.8351C10.879 19.74 10.871 19.6434 10.8731 19.5468C10.8531 19.3808 10.8437 19.2138 10.8447 19.0467L6.56968 18.5137L6.56563 18.5243C6.50876 19.7605 6.64762 20.998 6.97736 22.1935C7.01579 22.3468 7.05826 22.4904 7.10072 22.6335C7.14319 22.7767 7.18889 22.91 7.23541 23.043C7.36402 23.4036 7.50747 23.7578 7.66574 24.1055C7.82139 24.4515 7.99527 24.7895 8.18668 25.1182C8.37142 25.4527 8.57392 25.7776 8.79336 26.0917C8.79279 26.0931 8.79251 26.0945 8.79255 26.096C8.79259 26.0975 8.79295 26.0989 8.79359 26.1002C8.79424 26.1016 8.79516 26.1028 8.79631 26.1037C8.79745 26.1047 8.79879 26.1054 8.80023 26.1058C9.01985 26.4169 9.25807 26.711 9.4963 27.0056L12.5916 24.0875C12.4779 23.942 12.3744 23.8008 12.2753 23.6486C11.8648 23.0469 11.5401 22.3943 11.3099 21.7083Z" fill="#494949"/>
<path d="M11.3308 9.22193C11.2139 9.30861 11.1035 9.4098 10.9825 9.50707C10.6496 9.78834 10.3353 10.0896 10.0414 10.4092C9.91297 10.5259 9.79335 10.6513 9.68342 10.7845C9.51719 10.9704 9.35743 11.1709 9.19807 11.3709C8.99975 11.6146 8.8157 11.8689 8.6468 12.1326C8.47855 12.3879 8.30625 12.6538 8.15903 12.917C7.98593 13.2174 7.83021 13.5355 7.68097 13.8677C7.55963 14.1282 7.44355 14.4023 7.34285 14.6698C7.2385 14.9479 7.14426 15.2299 7.06499 15.5049C6.98571 15.7798 6.90604 16.054 6.85144 16.3285L6.84375 16.3493L11.1334 16.8756L11.137 16.8651C11.2012 16.6049 11.2823 16.3489 11.3797 16.0987C11.4533 15.9026 11.5334 15.7214 11.6175 15.5296C11.6935 15.3568 11.7809 15.189 11.8792 15.0271C11.9661 14.8593 12.06 14.7059 12.1538 14.5526C12.1585 14.5373 12.1677 14.5237 12.1801 14.5133C12.2767 14.3544 12.3825 14.2009 12.4972 14.0537C12.791 13.6504 13.1252 13.2764 13.495 12.937C13.5908 12.8425 13.6972 12.7515 13.8036 12.6625C13.8986 12.5718 13.9989 12.4865 14.1041 12.4071L11.8525 8.82227C11.6802 8.96072 11.5014 9.08427 11.3308 9.22193Z" fill="#494949"/>
<path d="M21.8404 6.54763C21.6287 6.50713 21.4148 6.47832 21.1998 6.46134C21.0038 6.43147 20.8062 6.41222 20.608 6.40368C20.4123 6.38093 20.223 6.3723 20.0337 6.36446C19.4183 6.34413 18.8021 6.36787 18.1902 6.43545C17.8127 6.47703 17.4428 6.53272 17.0804 6.60254L17.0699 6.599C16.703 6.67745 16.3358 6.75903 15.9823 6.86728C15.9362 6.87128 15.8912 6.88295 15.8492 6.9018C15.5132 6.99195 15.1829 7.10104 14.8599 7.22851C14.6901 7.29676 14.5093 7.36108 14.3342 7.43953C14.1639 7.50777 13.9863 7.59641 13.8124 7.67485C13.811 7.67436 13.8095 7.67414 13.808 7.6742C13.8065 7.67427 13.8051 7.67462 13.8037 7.67524C13.8023 7.67586 13.8011 7.67674 13.8001 7.67782C13.7991 7.6789 13.7983 7.68015 13.7979 7.68152L16.0462 11.2656C16.2598 11.1777 16.4733 11.0899 16.6828 11.0126C16.9032 10.9389 17.1196 10.8753 17.3465 10.8165C17.5338 10.7663 17.7174 10.7259 17.901 10.6859C18.624 10.5503 19.3615 10.5018 20.0968 10.5416C20.2861 10.5502 20.4823 10.5729 20.6784 10.5953C20.7598 10.5994 20.8409 10.6086 20.9211 10.6228C21.1128 10.6561 21.3158 10.6926 21.5039 10.7361L22.9842 6.80296C22.6085 6.69598 22.2265 6.61072 21.8404 6.54763Z" fill="#494949"/>
<path d="M11.9873 29.274C12.149 29.3894 12.3027 29.4905 12.4678 29.5957C12.6223 29.6969 12.7804 29.7878 12.9385 29.8788C13.6326 30.2796 14.3638 30.6166 15.1226 30.8853C15.8815 31.1536 16.6645 31.3525 17.4615 31.4795C17.6431 31.5089 17.8256 31.5379 18.01 31.5579C18.2061 31.5803 18.3914 31.5995 18.5912 31.6116C18.7832 31.6321 18.9763 31.6421 19.1696 31.6415C19.3588 31.6501 19.5522 31.6485 19.7451 31.6469L19.3261 27.4851C18.8377 27.4672 18.3516 27.4121 17.8721 27.3204C17.6706 27.2842 17.4715 27.2371 17.2755 27.1792C17.045 27.1212 16.8182 27.0527 16.5952 26.9737C16.3722 26.8947 16.1531 26.8054 15.938 26.7058C15.7453 26.6266 15.5575 26.5368 15.3754 26.4368C14.9521 26.2073 14.5474 25.9471 14.1648 25.6582L11.0801 28.5798C11.2265 28.7018 11.3733 28.8238 11.525 28.9352C11.6724 29.0565 11.8267 29.1696 11.9873 29.274Z" fill="#494949"/>
</svg>
